<svg height="464pt" viewBox="-31 0 463 464" width="464pt" xmlns="http://www.w3.org/2000/svg"><path d="m368.5 80h-336c-17.671875 0-32 14.328125-32 32v192h400v-192c0-17.671875-14.328125-32-32-32zm0 0" fill="#5aaae7"/><path d="m328.5 0h-192c-4.417969 0-8 3.582031-8 8v24h136c4.417969 0 8 3.582031 8 8v24h24c4.417969 0 8 3.582031 8 8v120h24c4.417969 0 8-3.582031 8-8v-176c0-4.417969-3.582031-8-8-8zm0 0" fill="#ffd422"/><path d="m264.5 32h-192c-4.417969 0-8 3.582031-8 8v176c0 4.417969 3.582031 8 8 8h24v-152c0-4.417969 3.582031-8 8-8h168v-24c0-4.417969-3.582031-8-8-8zm0 0" fill="#ff9811"/><path d="m304.5 192v56c0 4.417969-3.582031 8-8 8h-192c-4.417969 0-8-3.582031-8-8v-136h208zm0 0" fill="#00ccb3"/><path d="m296.5 440v16c0 4.417969-3.582031 8-8 8h-176c-4.417969 0-8-3.582031-8-8v-16c0-4.417969 3.582031-8 8-8h176c4.417969 0 8 3.582031 8 8zm0 0" fill="#787680"/><path d="m256.5 368 8 64h-128l8-64zm0 0" fill="#898890"/><path d="m400.5 304v32c0 17.671875-14.328125 32-32 32h-336c-17.671875 0-32-14.328125-32-32v-32zm0 0" fill="#acabb1"/><path d="m296.5 64h-192c-4.417969 0-8 3.582031-8 8v40h208v-40c0-4.417969-3.582031-8-8-8zm0 0" fill="#ff6243"/><path d="m344.5 328h16v16h-16zm0 0" fill="#898890"/><path d="m120.5 80h16v16h-16zm0 0" fill="#cd2a00"/><path d="m152.5 80h16v16h-16zm0 0" fill="#cd2a00"/><path d="m184.5 80h16v16h-16zm0 0" fill="#cd2a00"/><g fill="#009986"><path d="m176.5 168h16v16h-16zm0 0"/><path d="m208.5 168h16v16h-16zm0 0"/><path d="m240.5 168h16v16h-16zm0 0"/><path d="m144.5 168h16v16h-16zm0 0"/></g></svg>