<svg width="86" height="84" viewBox="0 0 86 84" fill="none" xmlns="http://www.w3.org/2000/svg">
<path d="M15.1786 0H70.5357C78.9286 0 85.7143 6.82051 85.7143 15.2564V68.7436C85.7143 77.1795 78.9286 84 70.5357 84H15.1786C6.78571 84 0 77.1795 0 68.7436V15.2564C0 6.82051 6.78571 0 15.1786 0Z" fill="#3C3B3B"/>
<path d="M32.8571 72.1538C38.3771 72.1538 42.8571 67.6509 42.8571 62.1026V52.0513H32.8571C27.3371 52.0513 22.8571 56.5542 22.8571 62.1026C22.8571 67.6509 27.3371 72.1538 32.8571 72.1538Z" fill="#0ACF83"/>
<path d="M22.8571 42.1795C22.8571 36.7303 27.3371 32.3077 32.8571 32.3077H42.8571V52.0513H32.8571C27.3371 52.0513 22.8571 47.6288 22.8571 42.1795Z" fill="#A259FF"/>
<path d="M22.8571 22.2564C22.8571 16.7081 27.3371 12.2051 32.8571 12.2051H42.8571V32.3076H32.8571C27.3371 32.3076 22.8571 27.8047 22.8571 22.2564Z" fill="#F24E1E"/>
<path d="M42.8571 12.2051H52.8571C58.3771 12.2051 62.8572 16.7081 62.8572 22.2564C62.8572 27.8047 58.3771 32.3076 52.8571 32.3076H42.8571V12.2051Z" fill="#FF7262"/>
<path d="M62.8572 42.1795C62.8572 47.6288 58.3771 52.0513 52.8571 52.0513C47.3371 52.0513 42.8571 47.6288 42.8571 42.1795C42.8571 36.7303 47.3371 32.3077 52.8571 32.3077C58.3771 32.3077 62.8572 36.7303 62.8572 42.1795Z" fill="#1ABCFE"/>
</svg>
