<svg width="240" height="234" viewBox="0 0 240 234" fill="none" xmlns="http://www.w3.org/2000/svg">
<path d="M42.5 0H197.5C221 0 240 19 240 42.5V191.5C240 215 221 234 197.5 234H42.5C19 234 0 215 0 191.5V42.5C0 19 19 0 42.5 0Z" fill="#2B2D34"/>
<path d="M92 201C107.456 201 120 188.456 120 173V145H92C76.544 145 64 157.544 64 173C64 188.456 76.544 201 92 201Z" fill="#0ACF83"/>
<path d="M64 117.5C64 102.32 76.544 90 92 90H120V145H92C76.544 145 64 132.68 64 117.5Z" fill="#A259FF"/>
<path d="M64 62C64 46.544 76.544 34 92 34H120V90H92C76.544 90 64 77.456 64 62Z" fill="#F24E1E"/>
<path d="M120 34H148C163.456 34 176 46.544 176 62C176 77.456 163.456 90 148 90H120V34Z" fill="#FF7262"/>
<path d="M176 117.5C176 132.68 163.456 145 148 145C132.544 145 120 132.68 120 117.5C120 102.32 132.544 90 148 90C163.456 90 176 102.32 176 117.5Z" fill="#1ABCFE"/>
</svg>
