<svg width="64" height="87" viewBox="0 0 64 87" fill="none" xmlns="http://www.w3.org/2000/svg">
<g clip-path="url(#clip0)">
<path d="M4.10117 21.1449C4.10117 21.1449 5.58168 26.891 5.79278 28.8069C6.00439 30.7222 1.98633 34.9787 1.98633 37.1069C1.98633 39.2357 2.83097 43.0666 7.48439 44.9824C12.1378 46.8979 12.7716 51.7928 12.7716 54.7731C12.7716 57.7527 11.08 63.4986 11.08 63.4986C11.08 63.4986 10.023 77.7583 15.7329 80.3122C21.4423 82.8658 20.1742 82.8658 21.4423 82.8658C22.7094 82.8658 32.0152 86.699 37.5146 85.2083C43.0139 83.7202 44.4927 82.0166 44.4927 82.0166C44.4927 82.0166 49.992 82.4425 51.6823 77.5471C53.3752 72.6543 54.4307 62.4377 53.7959 57.7553C53.161 53.0729 52.3146 46.9023 56.121 44.7728C59.9275 42.6458 63.9456 40.0904 63.3107 37.9634C62.6759 35.8365 59.2927 32.8551 59.2927 32.8551C59.2927 32.8551 58.4462 27.5364 59.0785 26.2587C59.7133 24.9835 63.5198 21.7892 61.4036 19.4493C59.2901 17.1094 55.481 17.1094 55.481 17.1094L50.6191 17.5327C50.6191 17.5327 42.3742 10.0816 31.5871 10.5075C20.8077 10.9334 14.0387 17.5298 14.0387 17.5298C14.0387 17.5298 10.4439 16.2526 7.27149 17.5298C4.0973 18.8076 3.46504 17.5298 4.09988 21.1475L4.10117 21.1449Z" fill="#FBA919"/>
<path d="M23.4258 52.8329C23.4258 52.8329 19.2374 59.2774 16.1657 63.8507C15.6903 64.5581 19.2377 64.6072 19.2377 64.6072L23.426 52.8329H23.4258ZM25.4199 39.472C25.4199 39.472 24.1574 42.6414 23.4658 44.3217C22.7148 46.1484 19.8529 47.0571 19.8529 47.0571C19.8529 47.0571 21.3368 45.4911 21.3368 41.5239C21.3368 39.8618 23.4717 39.1996 23.4717 39.1996L25.4201 39.4749L25.4199 39.472Z" fill="#E78724"/>
<path d="M24.1445 41.264C24.1445 41.264 21.5579 44.3622 16.7554 42.6274C11.9518 40.8926 11.4594 34.6946 11.4594 32.9592C11.4594 31.2239 20.5734 34.6946 21.8052 35.4383C23.0369 36.1821 25.376 39.1565 24.1445 41.264V41.264ZM6.00259 8.15462C6.00259 8.15462 10.4361 7.28618 13.392 9.64141C16.3489 11.9961 17.2098 13.8558 17.2098 13.8558L12.2279 17.8301C12.2279 17.8301 9.82066 16.7066 9.0813 13.4837C8.34272 10.2613 8.83537 8.77427 6.00259 8.15462V8.15462Z" fill="#E78724"/>
<path d="M22.8516 32.3139C20.9424 29.587 17.7966 28.3976 15.2851 28.2002C11.0021 27.8634 8.96876 29.387 8.96876 29.387C8.96876 29.387 15.983 29.6857 18.0046 32.358C21.7682 37.3313 27.2588 37.7354 28.1368 36.6431C27.1215 36.694 26.0046 36.1878 24.8093 35.0504C24.0624 34.3388 23.457 33.1795 22.8513 32.3139H22.8516ZM11.0106 41.9558C11.0106 41.9558 3.22838 39.2635 4.70709 36.5374C6.18502 33.81 5.00902 32.3243 5.00902 32.3243C5.00902 32.3243 0.663216 35.5887 1.77031 39.0588C2.45109 41.1884 3.59276 42.731 9.86192 45.6864C12.8689 51.3064 10.4828 61.4243 10.6258 61.4711C10.864 61.549 14.8477 59.4896 14.5757 50.0234C14.4931 47.1148 14.2635 43.1491 11.0119 41.9519L11.0106 41.9558ZM21.2088 13.0043C17.9455 14.6726 13.4751 16.9959 13.4751 16.9959L15.2346 17.8815C15.0668 18.1555 14.9855 18.3188 14.9855 18.3188L16.7894 19.1452C16.7894 19.1452 21.1971 22.359 23.8991 24.4249C22.9984 21.6344 20.3533 17.2501 20.3533 17.2501C20.3533 17.2501 19.6023 15.2356 21.2049 13.004L21.2088 13.0043ZM32.049 81.0097C22.0193 81.0097 18.6219 75.8858 18.6219 75.8858L20.1894 79.7268C20.7819 81.3889 27.1024 86.5595 32.0341 86.5595" fill="#E78724"/>
<path d="M19.7213 72.4229C19.7213 72.4229 20.6439 78.0987 24.3388 78.0987C27.4787 78.0987 28.4039 73.3046 28.4039 72.3139L19.721 72.4229H19.7213ZM13.5721 63.8637C13.9004 62.9542 15.0498 59.2774 15.4191 55.9311C15.8604 51.9234 15.7004 46.0617 15.7004 46.0617C15.7004 46.0617 14.7146 49.904 13.8501 50.5249C12.9881 51.1443 11.3856 55.358 11.3856 55.358C11.3856 55.358 10.5262 61.6313 10.1185 63.7398C11.2488 63.9676 12.1985 63.2976 13.5662 63.8637H13.5721ZM4.6493 38.9973C4.6493 38.9973 6.7422 38.253 7.35897 33.6677C7.97446 29.0814 6.61936 25.1152 6.61936 25.1152C6.61936 25.1152 6.74246 31.4363 6.00388 32.6762C5.26427 33.9149 4.64904 34.2871 3.78659 35.899C2.92388 37.5108 4.15562 38.5013 4.6493 38.9973V38.9973Z" fill="#E78724"/>
<path d="M7.14838 9.23915L6.72128 8.96646C5.46115 9.00957 7.14863 9.23915 7.14863 9.23915H7.14838Z" fill="#FDC168"/>
<path d="M22.9125 11.6466C22.9125 11.6466 20.9424 11.3162 19.9566 9.82919C18.9708 8.34162 16.1796 5.36648 11.7295 5.33324C7.28051 5.29947 2.87793 6.52345 2.87793 6.52345L6.72051 8.96464C7.12722 8.95166 7.83793 8.95685 9.01316 8.99581C13.8359 9.15682 14.5783 13.9561 14.5783 13.9561L31.577 11.6006" fill="#FBA919"/>
<path d="M24.5548 38.1611C24.5548 38.1611 22.2555 40.475 18.7246 39.7307C15.1935 38.9874 13.0583 37.4173 12.8942 34.6899C12.7301 31.963 13.6338 30.8892 13.6338 30.8892C13.6338 30.8892 17.577 32.1305 19.4661 33.7822C21.3551 35.4365 22.7512 38.0803 24.5577 38.1634L24.5548 38.1611Z" fill="white"/>
<path d="M21.7724 37.3347C21.7724 37.3347 19.7783 38.2514 17.5494 37.5045C14.6317 36.5255 14.4372 33.4714 14.4372 33.4714C14.4372 33.4714 12.6475 38.7576 17.6655 39.7751C21.6908 40.5911 24.0712 38.2439 24.0712 38.2439L21.7724 37.335V37.3347Z" fill="#C9C9C9"/>
<path d="M23.1897 10.5252C22.975 5.99183 26.6679 2.38094 27.9474 2.22772C28.0181 2.99566 27.8761 5.99209 29.1551 6.91351C29.5277 4.46687 30.7871 1.76857 35.76 0C34.695 2.84269 35.6181 5.2239 36.0573 6.32763C39.4534 3.22575 41.7412 3.7384 41.7412 3.7384C41.7412 3.7384 39.3817 7.83571 40.3045 10.5244C33.4875 9.9863 23.2227 11.2531 23.1897 10.5252V10.5252ZM8.73729 17.4306C7.11071 16.0724 8.3231 14.8121 8.19458 13.2692C8.12491 12.4485 8.06039 11.6736 7.79123 11.2461C6.29445 8.86777 2.76413 8.14606 2.728 8.13853L1.07123 7.81182L2.168 6.52033C2.30994 6.35308 6.81574 2.02749 13.7886 4.29209C18.6661 5.87523 22.2764 11.2427 22.4106 11.4598L19.9667 12.6168C19.9383 12.5711 17.0841 7.52589 12.9009 6.16843C9.52026 5.06989 6.40284 6.11467 5.06607 6.7995C6.48542 7.36981 8.34091 8.40835 9.46091 10.185C9.98994 11.0238 10.0777 12.0808 10.1628 13.1035C10.2764 14.4578 10.3822 15.7364 11.3732 16.5643L8.74091 17.4304L8.73729 17.4306ZM4.39304 37.2542C4.39304 37.2542 6.44207 34.6969 7.04929 29.7208C7.28774 27.7608 6.86426 23.8949 6.18658 22.4076C6.30968 26.0642 5.38607 29.7208 5.38607 29.7208C5.38607 29.7208 4.76413 36.5104 4.3951 37.2542H4.39304Z" fill="#463014"/>
<path d="M15.199 14.8476C15.1979 14.8425 14.5414 11.9551 12.7216 10.4976C10.1538 8.44237 7.01884 9.53571 6.98865 9.54532L6.53445 8.12995C6.68671 8.0806 10.2712 6.94441 13.5719 9.28042C16.8932 11.6297 17.2932 13.7592 17.3267 13.9945L15.2003 14.8476H15.199ZM10.8294 35.4202C10.8294 35.4202 9.75433 33.8713 9.94762 32.1679C10.0439 31.3265 10.4312 30.4632 11.1228 30.1568C12.408 29.5906 12.9783 31.0554 12.9783 31.0554C12.9783 31.0554 11.1693 31.5046 10.8312 35.4209L10.8294 35.4202Z" fill="#463014"/>
<path d="M22.6341 37.7809C22.679 37.8653 22.7019 37.9125 22.7019 37.9125C22.7019 37.9125 19.3487 40.4451 15.9123 37.8751C14.0723 36.4987 14.2462 33.094 14.8098 31.6501C16.2756 31.9851 17.5185 32.5876 18.5574 33.2914C17.2444 32.1123 16.095 31.2449 16.0981 31.2242L14.6057 30.7983L11.705 29.7984C11.6679 30.0217 10.6098 35.0132 13.6638 38.4127C15.0173 39.9216 21.3631 43.2977 24.376 37.5245L22.6341 37.7868V37.7809Z" fill="#463014"/>
<path d="M22.32 38.152C24.208 41.0437 28.9716 39.3913 28.8896 36.3341C28.8896 36.3341 25.7066 38.1018 22.8947 34.847C21.2527 32.9486 15.9915 27.7078 8.8573 29.4504C13.7843 30.5412 20.3068 35.0704 22.32 38.1556V38.152Z" fill="#463014"/>
<path d="M8.19098 46.3133C8.64517 46.5775 10.2467 48.2468 10.2478 50.7439C10.2478 51.9956 10.1239 58.2856 9.50814 62.1279C10.4346 62.7335 11.0798 62.8623 12.0018 63.4796C12.4638 59.0294 12.7946 52.5794 12.6403 49.9757C12.4648 47.0073 10.8854 45.0154 9.4222 44.1661C8.96543 43.9007 8.48543 43.6397 8.00285 43.3772C5.49446 42.0132 2.90091 40.6023 2.90091 38.193C2.90091 36.3084 3.62865 35.7188 4.40027 35.094L4.48285 35.0265C4.99382 34.6104 5.57446 34.1388 5.91769 33.3644C6.85446 31.247 7.00672 25.8538 5.91769 24.4844C5.37575 23.8014 3.92027 21.5056 4.33833 19.9656C4.49833 19.3761 4.86736 18.9398 5.46607 18.6307C6.10091 18.3035 6.95769 18.1373 8.01317 18.1373C10.0854 18.1373 12.3848 18.771 13.5693 19.1501C17.8067 20.5006 22.919 24.3961 24.3848 25.5596L24.457 25.6141L25.3938 26.2711L24.808 25.2817C24.7719 25.2194 21.0583 19.0722 14.4158 16.818C13.1228 16.3791 10.5861 15.6442 8.09059 15.6442C6.60672 15.6442 5.34478 15.9039 4.34607 16.4181C3.13059 17.044 2.30736 18.0438 1.96414 19.306C1.12543 22.4016 3.85833 25.8478 3.95123 25.9595C4.27123 26.5309 4.40543 30.6861 3.66994 32.3508C3.5693 32.5793 3.29317 32.8052 2.93962 33.0909C2.83123 33.1792 2.70736 33.2727 2.57575 33.3714C1.53833 34.1583 -0.0307007 35.3503 -0.0307007 38.0954C-0.0307007 41.8506 3.75511 43.8893 6.79511 45.5254C7.29575 45.7955 7.77059 46.05 8.20156 46.2993L8.19098 46.3133Z" fill="#463014"/>
<path d="M8.73729 17.4304C7.11071 16.0721 8.3231 14.8121 8.19458 13.2692C8.1249 12.4485 8.06039 11.6736 7.79123 11.2461C6.29445 8.86776 2.76413 8.14605 2.728 8.13852L1.07123 7.81181L2.168 6.52032C2.30994 6.35307 6.81574 2.02748 13.7886 4.29208C18.6661 5.87522 22.2764 11.2427 22.4106 11.4598L19.9667 12.6168C19.9383 12.5711 17.0841 7.52588 12.9009 6.16842C9.52026 5.06988 6.40284 6.11466 5.06607 6.7995C6.48542 7.3698 8.34091 8.40835 9.46091 10.185C9.98994 11.0238 10.0777 12.0808 10.1628 13.1035C10.2764 14.4578 10.3822 15.7363 11.3732 16.5643L8.74091 17.4304H8.73729Z" fill="#463014"/>
<path d="M8.68438 17.7085L8.57935 17.621C7.37315 16.616 7.58709 15.6213 7.79432 14.663C7.88851 14.2215 7.98786 13.7618 7.9476 13.2918C7.8818 12.5023 7.81857 11.757 7.58218 11.3804C6.15767 9.11579 2.71251 8.39122 2.67896 8.38343L0.609283 7.9731L1.98219 6.36036C2.00799 6.33179 4.9009 3.39197 9.79896 3.39197C11.1357 3.39197 12.5035 3.61531 13.8635 4.0594C18.9525 5.7111 22.5861 11.2765 22.6196 11.331L22.7667 11.5674L19.8738 12.9386L19.7577 12.7542C19.448 12.2218 16.7048 7.66925 12.8235 6.4097C11.8712 6.09806 10.8673 5.94224 9.84025 5.94224C7.98218 5.94224 6.47509 6.45385 5.67251 6.79406C7.01444 7.40176 8.63767 8.42498 9.66735 10.0585C10.2273 10.9493 10.3177 12.0348 10.4054 13.084C10.5138 14.3903 10.617 15.6187 11.528 16.3796L11.8712 16.6653L8.6867 17.7171L8.68438 17.7085Z" fill="#463014"/>
<path d="M15.199 14.8476C15.1979 14.8425 14.5414 11.9551 12.7216 10.4976C10.1538 8.44237 7.01884 9.53571 6.98865 9.54532L6.53445 8.12995C6.68671 8.0806 10.2712 6.94441 13.5719 9.28042C16.8932 11.6297 17.2932 13.7592 17.3267 13.9945L15.2003 14.8476H15.199Z" fill="#463014"/>
<path d="M15.0225 15.1853L14.9585 14.9012C14.9518 14.8734 14.3081 12.085 12.5672 10.6922C11.5752 9.89749 10.3789 9.49495 9.0137 9.49495C7.94789 9.49495 7.15563 9.75205 7.06918 9.78062L6.83382 9.86113L6.22479 7.9731L6.45963 7.89779C6.56544 7.86403 7.51512 7.56537 8.86221 7.56537C10.6377 7.56537 12.3151 8.08997 13.7164 9.08203C17.1229 11.4921 17.5383 13.7177 17.5745 13.9644L17.6054 14.1592L15.03 15.1928L15.0225 15.1853ZM9.0137 8.99866C10.4723 8.99866 11.8085 9.45002 12.8743 10.3034C14.4201 11.5422 15.1471 13.7289 15.3672 14.5132L17.0421 13.8413C16.8906 13.2461 16.2227 11.4599 13.4292 9.48352C12.0929 8.53821 10.5556 8.05932 8.85886 8.05932C7.92776 8.05932 7.20466 8.20839 6.84698 8.29929L7.14892 9.2394C7.49989 9.14435 8.17395 8.99866 9.0137 8.99866V8.99866ZM24.1845 76.7371C23.4568 76.7371 22.7141 76.4714 22.1992 76.0229C21.8052 75.6812 20.4728 74.4492 19.8849 72.9403C19.6656 72.376 19.7146 71.9249 20.0331 71.5997C20.2524 71.3771 20.7076 71.1109 21.6318 71.1109L22.2893 71.1099C23.0738 71.1091 24.3925 71.1091 25.5203 71.1091H26.6016C27.3061 71.1091 27.8093 71.2624 28.0983 71.561C28.47 71.9454 28.3512 72.4362 28.248 72.6933C28.0674 73.1452 27.319 74.6151 26.0493 75.9785C25.5951 76.4694 24.9345 76.7395 24.1887 76.7395L24.1845 76.7371ZM24.9471 38.3221L22.32 38.152C22.32 38.152 22.9915 39.3435 23.4266 40.8846C23.918 42.6271 22.9776 45.1748 22.9776 45.1748C22.9776 45.1748 26.4808 41.1832 24.9474 38.3213L24.9471 38.3221ZM21.6671 83.7192C12.3154 82.9959 9.02505 74.103 9.02505 72.2508L11.4674 72.2518H10.2462H11.4674C11.4795 73.0543 13.9649 80.6609 21.8545 81.2712L21.6674 83.7228L21.6671 83.7192Z" fill="#463014"/>
<path d="M19.0392 67.7863C18.8932 66.9363 18.8779 66.1301 19.0563 65.3381C18.3455 64.8005 17.0702 64.6005 16.1133 64.2863C15.3288 63.7876 11.3262 64.7953 8.42038 61.2581C4.77909 56.8276 5.54554 54.1813 5.54554 54.1813C4.61135 55.2253 3.70812 54.8253 2.2836 59.6921C0.859088 64.5589 2.95199 67.9506 6.85393 71.3553C8.69651 72.9629 11.303 73.6251 13.543 73.8796C12.792 73.1213 14.8255 73.0434 16.2268 72.5162C16.1133 71.3761 16.3017 70.2724 17.1455 69.3816C17.6539 68.844 18.3094 68.5246 18.9881 68.2675C19.0268 68.1792 19.0578 68.0987 19.0939 68.013C19.0707 67.9351 19.0501 67.8572 19.0346 67.774L19.0392 67.7863Z" fill="white"/>
<path d="M16.2116 72.4957C16.1308 72.2568 16.0697 72.0126 16.0095 71.7677C15.945 71.5002 15.6225 70.7414 16.0199 71.6075C15.9177 71.3857 15.8508 71.1572 15.8015 70.9271C9.48413 70.9188 3.98736 66.5537 5.05058 57.3759C4.22477 56.2708 3.06607 59.6041 3.06607 59.6041C3.06607 59.6041 -0.0952256 68.8464 8.07252 72.4282C10.7951 73.6228 13.2003 74.4793 13.768 74.1336C14.9499 74.3751 16.0183 73.5459 16.4183 73.0005C16.3435 72.833 16.2764 72.6655 16.217 72.4954L16.2116 72.4957Z" fill="#C9C9C9"/>
<path d="M18.9254 66.4555C18.9352 65.6808 19.0924 64.9305 19.4648 64.1831C19.4906 64.1312 19.5208 64.0818 19.5487 64.032C17.1177 64.0112 14.3177 63.7767 11.9332 62.8166C9.31382 61.7614 6.0364 58.1523 5.47124 53.9119C5.47124 53.9119 0.537047 57.7446 1.98737 65.9481C3.34737 73.6513 9.75253 76.1626 17.0583 76.5875C17.0635 76.5377 16.2377 74.8215 16.4983 73.7711C12.3512 74.0749 7.71124 72.4622 5.47382 68.7536C3.42479 65.3619 4.00027 59.568 4.84156 58.7187C6.89834 65.245 14.2919 66.5721 18.9293 66.4579L18.9254 66.4555Z" fill="#463014"/>
<path d="M19.6909 61.7835C18.3763 65.666 15.6909 68.8076 15.6909 68.8076C15.6909 68.8076 19.3848 68.6362 19.5887 67.9792C19.7396 67.4936 22.9239 59.9934 24.1461 51.2051C22.9964 53.1061 19.8034 61.4477 19.6909 61.7801V61.7835Z" fill="#463014"/>
<path d="M40.6176 52.8329C40.6176 52.8329 44.8047 59.2774 47.8777 63.8507C48.353 64.5581 44.8046 64.6072 44.8046 64.6072L40.6176 52.8329V52.8329ZM38.6227 39.472C38.6227 39.472 39.8857 42.6414 40.5763 44.3217C41.3272 46.1484 44.1892 47.0571 44.1892 47.0571C44.1892 47.0571 42.7053 45.4911 42.7053 41.5239C42.7053 39.8618 40.5706 39.1996 40.5706 39.1996L38.6248 39.4749L38.6227 39.472Z" fill="#E78724"/>
<path d="M39.8981 41.264C39.8981 41.264 42.4846 44.3622 47.2885 42.6274C52.0924 40.8926 52.5845 34.6946 52.5845 32.9592C52.5845 31.2239 43.4705 34.6946 42.2387 35.4383C41.0065 36.1821 38.6671 39.1565 39.8981 41.264V41.264ZM58.04 8.15462C58.04 8.15462 53.6065 7.28618 50.6501 9.64141C47.6926 11.9961 46.8307 13.8558 46.8307 13.8558L51.8114 17.8298C51.8114 17.8298 54.2191 16.7066 54.9572 13.4837C55.6952 10.2613 55.2023 8.77427 58.0359 8.15462H58.04Z" fill="#E78724"/>
<path d="M41.1917 32.3139C43.1006 29.587 46.2454 28.3976 48.7582 28.2002C53.0413 27.8634 55.0735 29.387 55.0735 29.387C55.0735 29.387 48.0594 29.6857 46.0374 32.358C42.2735 37.3313 36.7848 37.7354 35.9068 36.6431C36.921 36.694 38.0385 36.1878 39.2333 35.0504C39.9791 34.3388 40.5855 33.1795 41.1894 32.3139H41.1917ZM53.0323 41.9558C53.0323 41.9558 60.8139 39.2635 59.336 36.5371C57.8583 33.8077 59.0335 32.3222 59.0335 32.3222C59.0335 32.3222 63.3801 35.5866 62.2717 39.0562C61.5912 41.1858 60.4498 42.7284 54.1804 45.6838C51.1714 51.3038 53.5585 61.4217 53.4165 61.4685C53.1765 61.5464 49.1946 59.487 49.4655 50.0208C49.5481 47.1148 49.7778 43.1465 53.0294 41.9493L53.0323 41.9558ZM42.8346 13.0043C46.0965 14.6726 50.568 16.9959 50.568 16.9959L48.8106 17.8815C48.9783 18.1555 49.0609 18.3188 49.0609 18.3188L47.257 19.1452C47.257 19.1452 42.8493 22.359 40.1474 24.4249C41.048 21.6344 43.6906 17.2501 43.6906 17.2501C43.6906 17.2501 44.4415 15.2356 42.839 13.004L42.8346 13.0043ZM31.9943 81.0097C42.0227 81.0097 45.4201 75.8858 45.4201 75.8858L43.8537 79.7268C43.2612 81.3889 36.9401 86.5595 32.0096 86.5595" fill="#E78724"/>
<path d="M44.3221 72.4229C44.3221 72.4229 43.3982 78.0987 39.7043 78.0987C36.5649 78.0987 35.6397 73.3046 35.6397 72.3139L44.3221 72.4229V72.4229ZM50.471 63.8637C50.1427 62.9542 48.9933 59.2774 48.6232 55.9311C48.1804 51.9234 48.3427 46.0617 48.3427 46.0617C48.3427 46.0617 49.3285 49.904 50.1894 50.5249C51.0524 51.1443 52.6529 55.358 52.6529 55.358C52.6529 55.358 53.5107 61.6313 53.919 63.7398C52.7894 63.9676 51.839 63.2976 50.4712 63.8637H50.471ZM59.3948 38.9973C59.3948 38.9973 57.3004 38.253 56.6852 33.6677C56.0694 29.0814 57.4243 25.1152 57.4243 25.1152C57.4243 25.1152 57.3004 31.4363 58.0385 32.6762C58.7765 33.9157 59.3933 34.2871 60.2552 35.899C61.1172 37.5105 59.8836 38.5013 59.3933 38.9973H59.3948Z" fill="#E78724"/>
<path d="M56.8942 9.23915L57.3226 8.96646C58.5827 9.00957 56.8942 9.23915 56.8942 9.23915Z" fill="#FDC168"/>
<path d="M41.1298 11.6466C41.1298 11.6466 43.1009 11.3162 44.0857 9.82919C45.0715 8.34162 47.8637 5.36648 52.3135 5.33324C56.7631 5.29947 61.1652 6.52345 61.1652 6.52345L57.3226 8.96464C56.9159 8.95166 56.2052 8.95685 55.0289 8.99581C50.207 9.15682 49.4645 13.9561 49.4645 13.9561L32.4684 11.6006" fill="#FBA919"/>
<path d="M39.488 38.1611C39.488 38.1611 41.7874 40.475 45.3177 39.7307C48.849 38.9874 50.984 37.4173 51.1484 34.6899C51.3123 31.963 50.4096 30.8892 50.4096 30.8892C50.4096 30.8892 46.4676 32.1305 44.5791 33.7822C42.6906 35.4339 41.295 38.0803 39.488 38.1634V38.1611Z" fill="white"/>
<path d="M42.2699 37.3347C42.2699 37.3347 44.2648 38.2514 46.4929 37.5045C49.4116 36.5255 49.6057 33.4714 49.6057 33.4714C49.6057 33.4714 51.3946 38.7576 46.3763 39.7751C42.352 40.5911 39.9711 38.2439 39.9711 38.2439L42.2699 37.335V37.3347Z" fill="#C9C9C9"/>
<path d="M55.3058 17.4304C56.9321 16.0721 55.7208 14.8121 55.8493 13.2692C55.9179 12.4485 55.9825 11.6736 56.2519 11.2461C57.7487 8.86776 61.2795 8.14605 61.3159 8.13852L62.9727 7.81181L61.8759 6.52032C61.7339 6.35307 57.2281 2.02748 50.2552 4.29208C45.3778 5.87522 41.7675 11.2427 41.6333 11.4598L44.0772 12.6168C44.1056 12.5711 46.9598 7.52588 51.1456 6.16842C54.5262 5.06988 57.6436 6.11466 58.9778 6.7995C57.5585 7.3698 55.703 8.40835 54.583 10.185C54.0539 11.0238 53.9662 12.0808 53.881 13.1035C53.7675 14.4578 53.6591 15.7363 52.6681 16.5643L55.2978 17.4304H55.3058ZM59.649 37.2542C59.649 37.2542 57.6008 34.6969 56.9936 29.7207C56.7554 27.7608 57.1781 23.8949 57.8555 22.4076C57.7324 26.0642 58.6568 29.7207 58.6568 29.7207C58.6568 29.7207 59.2798 36.5104 59.649 37.2542Z" fill="#463014"/>
<path d="M48.8439 14.8476C48.8452 14.8425 49.5019 11.9551 51.3221 10.4976C53.8893 8.44237 57.0245 9.53571 57.0537 9.54532L57.5104 8.12995C57.3582 8.0806 53.7752 6.94441 50.472 9.28042C47.1481 11.6297 46.7507 13.7592 46.7146 13.9945L48.841 14.8476H48.8439ZM53.2137 35.4202C53.2137 35.4202 54.2888 33.8713 54.0944 32.1679C53.999 31.3265 53.6119 30.4632 52.9202 30.1568C51.6351 29.5906 51.0653 31.0554 51.0653 31.0554C51.0653 31.0554 52.8743 31.5046 53.2137 35.4209V35.4202Z" fill="#463014"/>
<path d="M41.409 37.7809C41.3644 37.8653 41.3412 37.9125 41.3412 37.9125C41.3412 37.9125 44.6934 40.4451 48.1301 37.8751C49.9708 36.4987 49.7972 33.094 49.232 31.6501C47.7675 31.9851 46.5249 32.5876 45.4849 33.2914C46.7985 32.1123 47.9479 31.2449 47.9437 31.2242L49.4372 30.7983L52.3352 29.7984C52.3714 30.0217 53.4294 35.0132 50.3739 38.4127C49.0191 39.9216 42.6733 43.2977 39.6617 37.5245L41.4036 37.7868L41.409 37.7809Z" fill="#463014"/>
<path d="M41.7223 38.152C39.8343 41.0437 35.072 39.3913 35.1546 36.3341C35.1546 36.3341 38.3365 38.1018 41.1484 34.847C42.7902 32.9486 48.0521 27.7078 55.1863 29.4504C50.2598 30.5412 43.7365 35.0704 41.7223 38.1556V38.152Z" fill="#463014"/>
<path d="M55.8529 46.3133C55.3987 46.5775 53.7961 48.2468 53.7961 50.7439C53.7951 51.9956 53.9192 58.2856 54.5358 62.1279C53.6093 62.7335 52.9641 62.8623 52.0418 63.4796C51.5799 59.0294 51.248 52.5794 51.4034 49.9757C51.5796 47.0073 53.1582 45.0154 54.6225 44.1661C55.081 43.9007 55.5605 43.6397 56.0444 43.3772C58.5528 42.0132 61.1463 40.6023 61.1463 38.193C61.1463 36.3084 60.4176 35.7188 59.647 35.094L59.5644 35.0265C59.0534 34.6104 58.4733 34.1388 58.1314 33.3644C57.1946 31.247 57.0398 25.8538 58.1288 24.4844C58.6707 23.8014 60.1262 21.5056 59.7081 19.9656C59.5481 19.3761 59.1791 18.9398 58.5804 18.6307C57.9456 18.3035 57.0888 18.1373 56.0333 18.1373C53.961 18.1373 51.6617 18.771 50.4772 19.1501C46.2398 20.5006 41.1275 24.3961 39.6591 25.5596C39.6178 25.5907 39.592 25.6115 39.5868 25.6141L38.6475 26.2711L39.2333 25.2817C39.2694 25.2194 42.983 19.0722 49.6256 16.818C50.9185 16.3791 53.4552 15.6442 55.9507 15.6442C57.4346 15.6442 58.6939 15.9039 59.6927 16.4181C60.9081 17.044 61.7314 18.0438 62.0746 19.306C62.9133 22.4016 60.183 25.8478 60.0875 25.9595C59.7675 26.5309 59.6333 30.6861 60.3688 32.3508C60.4694 32.5793 60.7481 32.8052 61.0991 33.0909C61.2101 33.1792 61.3314 33.2727 61.463 33.3714C62.5004 34.1583 64.0694 35.3503 64.0694 38.0954C64.0694 41.8506 60.2862 43.8893 57.2462 45.5254C56.7481 45.7955 56.2707 46.05 55.8423 46.2993L55.8529 46.3133Z" fill="#463014"/>
<path d="M51.3394 16.9884C50.7376 15.9626 49.1985 13.9818 45.6511 12.241C41.6924 10.2995 37.1107 9.31421 32.0312 9.31162V9.31058H32.0132V9.31317C26.9345 9.31577 22.3512 10.3026 18.3925 12.2426C14.8467 13.9852 13.3087 15.9641 12.7048 16.9899L12.4467 17.3354L15.4839 18.0155L15.5814 17.8935L15.6323 17.7807C15.6787 17.5782 16.0865 16.4874 19.4733 14.8253C23.0939 13.0485 27.3159 12.1478 32.023 12.1452C36.7301 12.1473 40.952 13.0482 44.5727 14.8253C47.9585 16.4874 48.3688 17.5782 48.4152 17.7802L48.4643 17.8927L48.5598 18.0147L51.5972 17.3343L51.3391 16.9905L51.3394 16.9884Z" fill="#463014"/>
<path d="M55.3058 17.4304C56.9321 16.0721 55.7208 14.8121 55.8493 13.2692C55.9179 12.4485 55.9825 11.6736 56.2519 11.2461C57.7487 8.86776 61.2795 8.14605 61.3159 8.13852L62.9727 7.81181L61.8759 6.52032C61.7339 6.35307 57.2281 2.02748 50.2552 4.29208C45.3778 5.87522 41.7675 11.2427 41.6333 11.4598L44.0772 12.6168C44.1056 12.5711 46.9598 7.52588 51.1456 6.16842C54.5262 5.06988 57.6436 6.11466 58.9778 6.7995C57.5585 7.3698 55.703 8.40835 54.583 10.185C54.0539 11.0238 53.9662 12.0808 53.881 13.1035C53.7675 14.4578 53.6591 15.7363 52.6681 16.5643L55.2978 17.4304H55.3058Z" fill="#463014"/>
<path d="M52.175 16.6591L52.5172 16.3723C53.4281 15.6119 53.5303 14.3838 53.6402 13.0783C53.7285 12.0265 53.8196 10.941 54.3788 10.0502C55.4064 8.41665 57.0333 7.39602 58.3737 6.78573C57.5711 6.44292 56.0635 5.93391 54.2044 5.93391C53.1773 5.93391 52.1755 6.08973 51.2222 6.39877C47.3409 7.65832 44.5987 12.2083 44.288 12.7433L44.1719 12.9277L41.279 11.559L41.4261 11.3227C41.4604 11.2682 45.0906 5.70277 50.1809 4.05107C51.5435 3.60698 52.9112 3.38364 54.248 3.38364C59.1486 3.38364 62.0415 6.32346 62.0648 6.35202L63.4377 7.96737L61.368 8.3751C61.3344 8.38029 57.8893 9.10746 56.4648 11.3721C56.2299 11.7486 56.168 12.494 56.1009 13.2835C56.0622 13.7535 56.1602 14.2106 56.2557 14.6547C56.4622 15.613 56.6764 16.6076 55.4712 17.6127L55.368 17.6984L52.1835 16.6466L52.175 16.6591Z" fill="#463014"/>
<path d="M48.8439 14.8476C48.8452 14.8425 49.5019 11.9551 51.3221 10.4976C53.8893 8.44237 57.0245 9.53571 57.0537 9.54532L57.5104 8.12995C57.3582 8.0806 53.7752 6.94441 50.472 9.28042C47.1481 11.6297 46.7507 13.7592 46.7146 13.9945L48.841 14.8476H48.8439Z" fill="#463014"/>
<path d="M46.4451 14.1524L46.4735 13.9582C46.5097 13.7125 46.9259 11.4858 50.3306 9.07735C51.7319 8.08685 53.4119 7.56277 55.1848 7.56277C56.5319 7.56277 57.4815 7.86143 57.5873 7.89519L57.8222 7.9731L57.2131 9.86113L56.9783 9.78322C56.8906 9.75466 56.0983 9.49755 55.0351 9.49755C53.6699 9.49755 52.4751 9.90269 51.4841 10.6974C49.7448 12.092 49.0996 14.8786 49.0944 14.9071L49.0325 15.1928L46.457 14.1592L46.4451 14.1524ZM56.8942 9.23889L57.1974 8.29929C56.8397 8.20787 56.1156 8.05932 55.1845 8.05932C53.488 8.05932 51.9502 8.53873 50.6142 9.48353C47.8201 11.4599 47.1522 13.2461 47.0008 13.8413L48.6774 14.5132C48.8968 13.7289 49.623 11.5417 51.1693 10.3034C52.2377 9.45003 53.5719 8.99866 55.0299 8.99866C55.8686 8.99866 56.5448 9.1441 56.8957 9.23915L56.8942 9.23889ZM37.9979 75.9783C36.729 74.6128 35.9783 73.1436 35.7966 72.6923C35.6934 72.4352 35.5747 71.9451 35.9471 71.56C36.2371 71.2621 36.7399 71.1091 37.4428 71.1091H38.5267C39.6544 71.1091 40.9731 71.1091 41.7577 71.1117L42.4157 71.1143C43.3396 71.1143 43.7964 71.3818 44.0131 71.6026C44.3331 71.9272 44.3822 72.3791 44.1628 72.9452C43.5744 74.4541 42.2428 75.6877 41.848 76.0279C41.3319 76.4772 40.5912 76.7421 39.8635 76.7421C39.1177 76.7421 38.457 76.472 38.0028 75.9837L37.9979 75.9783ZM39.0962 38.3221L41.7223 38.152C41.7223 38.152 41.0513 39.3435 40.6165 40.8846C40.1236 42.6272 41.0655 45.1748 41.0655 45.1748C41.0655 45.1748 37.561 41.1832 39.0939 38.3213L39.0962 38.3221Z" fill="#463014"/>
<path d="M32.0219 28.8814C30.3471 28.8814 28.1639 28.8354 26.5257 27.6504C26.5257 27.6504 28.6707 31.4348 32.0191 31.4348L32.0217 30.9559L32.0248 31.4348C35.3734 31.4348 37.5182 27.6509 37.5182 27.6509C35.88 28.8352 33.695 28.8819 32.0219 28.8819V28.8814Z" fill="#E78724"/>
<path d="M36.6328 28.8632C34.9528 29.8864 33.4529 30.2409 32.0219 30.2724C30.5907 30.2412 29.0911 29.8864 27.4111 28.8635C27.4111 28.8635 29.8576 31.8682 32.0098 31.8916V31.8942H32.0217C32.0256 31.8942 32.0294 31.8968 32.0338 31.8968C34.1861 31.8734 36.6351 28.8713 36.6351 28.8713L36.6328 28.8632ZM42.376 83.7192L42.1887 81.2689C50.0777 80.6586 52.5628 73.0512 52.5757 72.2505H55.0196C55.0222 74.1022 51.7293 82.9959 42.3796 83.7189L42.376 83.7192Z" fill="#463014"/>
<path d="M45.0039 67.7863C45.1505 66.9363 45.1647 66.1301 44.9866 65.3381C45.6983 64.8005 46.9727 64.6005 47.9296 64.2863C48.712 63.7876 52.7172 64.7953 55.6225 61.2581C59.2619 56.8276 58.4947 54.1813 58.4947 54.1813C59.4289 55.2253 60.3327 54.8253 61.7561 59.6921C63.1807 64.5589 61.0865 67.9506 57.1853 71.3553C55.3427 72.9629 52.7368 73.6251 50.4958 73.8796C51.2467 73.1213 49.2158 73.0434 47.8145 72.5162C47.928 71.3761 47.7396 70.2724 46.8958 69.3816C46.3899 68.844 45.7345 68.5246 45.0558 68.2675C45.017 68.1792 44.9861 68.0987 44.95 68.013C44.9732 67.9351 44.9938 67.8572 45.0093 67.774L45.0039 67.7863Z" fill="white"/>
<path d="M47.8302 72.4957C47.9122 72.2568 47.9721 72.0126 48.0325 71.7677C48.0983 71.5002 48.4209 70.7414 48.0227 71.6075C48.1249 71.3857 48.1917 71.1572 48.241 70.9271C54.559 70.9188 60.0552 66.5537 58.9925 57.3759C59.8196 56.2708 60.9786 59.6041 60.9786 59.6041C60.9786 59.6041 64.1417 68.8464 55.9729 72.4282C53.2511 73.6228 50.8459 74.4793 50.2782 74.1336C49.095 74.3751 48.0279 73.5459 47.6286 73.0005C47.7035 72.833 47.7731 72.6655 47.8325 72.4954L47.8302 72.4957Z" fill="#C9C9C9"/>
<path d="M45.1166 66.4555C45.1079 65.6808 44.9497 64.9305 44.5786 64.1831C44.5523 64.1312 44.5218 64.0818 44.4944 64.032C46.9254 64.0112 49.7254 63.7767 52.1099 62.8166C54.7303 61.7614 58.0085 58.1523 58.5719 53.9119C58.5719 53.9119 63.5076 57.7446 62.0573 65.9481C60.6947 73.6513 54.2903 76.1626 46.9853 76.5875C46.9814 76.5377 47.8072 74.8215 47.5461 73.7711C51.6932 74.0749 56.3332 72.4622 58.5732 68.7536C60.6222 65.3619 60.0467 59.568 59.2054 58.7187C57.1512 65.245 49.7551 66.5721 45.1177 66.4579L45.1166 66.4555Z" fill="#463014"/>
<path d="M48.0666 68.3877C47.1938 67.4382 45.5892 66.3064 41.8893 66.3064L32.0364 66.3005H32.0132C29.1744 66.3026 22.1577 66.3064 22.1577 66.3064C18.4596 66.3064 16.8544 67.4387 15.9822 68.3877C14.7099 69.7693 14.5112 71.6919 15.3912 74.0946C17.7293 80.49 21.017 86.9875 32.0157 86.9966V86.9976H32.0286C32.0338 86.9976 32.0364 87.0002 32.0415 87.0002C43.0402 86.9924 46.328 80.4947 48.6661 74.0983C49.5461 71.696 49.3473 69.7742 48.0751 68.3926L48.0666 68.3877ZM46.3541 73.6461C45.24 76.8576 42.2457 84.631 32.0212 84.6445C21.7956 84.631 18.8026 76.8579 17.6883 73.6461C17.072 71.8646 17.119 70.5458 17.8328 69.7267C18.3205 69.1668 19.4405 68.4983 21.9928 68.4983L24.6593 68.4976C26.6266 68.4957 29.0965 68.4937 32.0219 68.4924C34.9458 68.4937 37.417 68.4957 39.3837 68.4976L42.0495 68.4986C44.6026 68.4986 45.7223 69.166 46.2101 69.7244C46.9231 70.5424 46.9706 71.8617 46.3541 73.6433V73.6461Z" fill="#463014"/>
</g>
<defs>
<clipPath id="clip0">
<rect width="64" height="87" fill="white"/>
</clipPath>
</defs>
</svg>
