<svg width="118" height="134" viewBox="0 0 118 134" fill="none" xmlns="http://www.w3.org/2000/svg">
<path d="M118 0L107.25 120.428L58.9278 133.825L10.7387 120.447L0 0H118Z" fill="#E44D26"/>
<path d="M59 123.585L98.0466 112.76L107.233 9.84836H59V123.585Z" fill="#F16529"/>
<path d="M38.1023 39.3934H59V24.6209H58.949H21.9579L22.3116 28.5841L25.9423 69.2927H59V54.5205H39.4523L38.1023 39.3934Z" fill="#EBEBEB"/>
<path d="M41.4314 76.6791H33.437H26.6023L28.6719 99.8739L58.932 108.274L59 108.255V92.8859L58.9352 92.9032L42.4831 88.4608L41.4314 76.6791Z" fill="#EBEBEB"/>
<path d="M58.9489 69.2927H77.1394L75.4247 88.4514L58.9489 92.8983V108.267L89.2331 99.8739L89.4552 97.3781L92.9266 58.4873L93.287 54.5205H89.3063H58.9489V69.2927Z" fill="white"/>
<path d="M58.9489 39.3573V39.3934H94.5837H94.6312L94.9276 36.073L95.6006 28.5841L95.9539 24.6209H58.9489V33.7958V39.3573Z" fill="white"/>
</svg>
