<svg width="125" height="142" viewBox="0 0 125 142" fill="none" xmlns="http://www.w3.org/2000/svg">
<path d="M62.4235 141.764L11.3758 127.592L0 0H125L113.612 127.572L62.4235 141.764Z" fill="#264DE4"/>
<path d="M103.863 119.449L113.595 10.4326H62.5V130.917L103.863 119.449Z" fill="#2965F1"/>
<path d="M26.0787 57.7548L27.4812 73.4033H62.5V57.7548H26.0787Z" fill="#EBEBEB"/>
<path d="M23.2605 26.0815L24.683 41.7303H62.5V26.0815H62.4459H23.2605Z" fill="#EBEBEB"/>
<path d="M62.5 98.3961L62.4314 98.4144L45.0034 93.7085L43.8892 81.2279H35.4206H28.1804L30.3728 105.799L62.428 114.697L62.5 114.677V98.3961Z" fill="#EBEBEB"/>
<path d="M98.821 57.7548L101.646 26.0815H62.4459V41.7303H84.4965L83.0725 57.7548H62.4459V73.4033H81.7155L79.8991 93.6985L62.4459 98.4092V114.69L94.5265 105.799L94.7619 103.155L98.4392 61.9569L98.821 57.7548Z" fill="white"/>
</svg>
