<svg width="62" height="42" viewBox="0 0 62 42" fill="none" xmlns="http://www.w3.org/2000/svg">
<path d="M33.2216 4.07691L22.4716 21.8461L33.9383 40.6923C34.01 40.8359 34.0458 40.9795 34.01 41.1231C33.9741 41.2667 33.8308 41.159 33.6158 41.1949H25.41C24.8366 41.1949 24.4425 41.159 24.1916 40.8C23.4391 39.2923 22.6508 37.8205 21.8983 36.3128C21.1458 34.841 20.3216 33.3333 19.4616 31.7897C18.6016 30.2461 17.7416 28.7026 16.8816 27.1231H16.81C16.0575 28.6667 15.2333 30.2102 14.4091 31.7538C13.585 33.2974 12.7608 34.841 11.9725 36.3487C11.1483 37.8564 10.3241 39.4 9.49998 40.8718C9.35664 41.2308 9.06998 41.2667 8.67581 41.2667H0.792479C0.649146 41.2667 0.541645 41.3385 0.541645 41.159C0.505812 41.0154 0.541646 40.8718 0.613312 40.7641L11.7575 22.4564L0.899979 4.04102C0.792479 3.89743 0.756645 3.75384 0.828312 3.68204C0.899978 3.57435 1.04331 3.53845 1.18665 3.53845H9.32081C9.49998 3.53845 9.67915 3.57435 9.82248 3.61025C9.96581 3.68204 10.0733 3.78973 10.1808 3.93332C10.8616 5.47691 11.65 7.0205 12.4741 8.56409C13.3341 10.1077 14.1583 11.6154 15.0541 13.1231C15.9141 14.6308 16.7025 16.1385 17.455 17.682H17.5266C18.2791 16.1026 19.0675 14.559 19.8558 13.0513C20.6441 11.5436 21.4683 10.0359 22.2925 8.5282C23.1166 7.0205 23.905 5.47691 24.6933 4.00512C24.7291 3.86153 24.8008 3.71794 24.9083 3.64614C25.0516 3.57435 25.195 3.53845 25.3741 3.57435H32.935C33.1141 3.53845 33.2933 3.64614 33.3291 3.82563C33.365 3.86153 33.2933 4.00512 33.2216 4.07691Z" fill="#FF61F6"/>
<path d="M49.7766 41.9487C47.125 41.9846 44.4733 41.4461 42.0725 40.3333C39.815 39.2923 37.9516 37.5692 36.6616 35.4513C35.3358 33.2615 34.6908 30.5333 34.6908 27.2667C34.655 24.6102 35.3358 21.9897 36.6616 19.6923C38.0233 17.359 39.9941 15.4205 42.3591 14.1282C44.8675 12.7282 47.8775 12.0461 51.425 12.0461C51.6041 12.0461 51.855 12.0461 52.1775 12.082C52.5 12.1179 52.8583 12.1179 53.2883 12.1538V0.810242C53.2883 0.55896 53.3958 0.415369 53.6466 0.415369H60.9208C61.1 0.379472 61.2433 0.523062 61.2791 0.666651C61.2791 0.702549 61.2791 0.738447 61.2791 0.738447V34.9128C61.2791 35.559 61.315 36.2769 61.3508 37.0667C61.4225 37.8205 61.4583 38.5384 61.4941 39.1487C61.4941 39.4 61.3866 39.6154 61.1358 39.7231C59.2725 40.5128 57.3016 41.0872 55.295 41.4461C53.4675 41.7692 51.64 41.9487 49.7766 41.9487ZM53.2883 34.7692V18.9743C52.9658 18.9025 52.6433 18.8308 52.3208 18.7949C51.9266 18.759 51.5325 18.7231 51.1383 18.7231C49.7408 18.7231 48.3433 19.0102 47.0891 19.6564C45.8708 20.2667 44.8316 21.1641 44.0433 22.3128C43.255 23.4615 42.8608 25.0051 42.8608 26.8718C42.825 28.1282 43.04 29.3846 43.47 30.5692C43.8283 31.5385 44.3658 32.4 45.0825 33.1179C45.7633 33.7641 46.5875 34.2667 47.5191 34.5538C48.4866 34.8769 49.49 35.0205 50.4933 35.0205C51.0308 35.0205 51.5325 34.9846 51.9983 34.9487C52.4641 34.9846 52.8583 34.9128 53.2883 34.7692Z" fill="#FF61F6"/>
</svg>
